PathFileType	4	(X/Y/Z)	C:/Users/opensim2020/Desktop/walking_exp_matlab/subject06_walking23_straight_03.trc	
DataRate	CameraRate	NumFrames	NumMarkers	Units	OrigDataRate	OrigDataStartFrame	OrigNumFrames	
100.00	100.00	6	45	mm	100.00	1810	94	
Frame#	Time	LFHD			RFHD			LBHD			RBHD			C7			T10			CLAV			STRN			RBAK			LSHO			LUPA			LELB			LFRM			LWRA			LWRB			LFIN			RSHO			RUPA			RELB			RFRM			RWRA			RWRB			RFIN			LASI			RASI			LPSI			RPSI			LTHI			LKNE			LTIB			LANK			LHEE			LTOE			RTHI			RKNE			RTIB			RANK			RHEE			RTOE			*39			*40			*41			*42			*43			*44			
		X1	Y1	Z1	X2	Y2	Z2	X3	Y3	Z3	X4	Y4	Z4	X5	Y5	Z5	X6	Y6	Z6	X7	Y7	Z7	X8	Y8	Z8	X9	Y9	Z9	X10	Y10	Z10	X11	Y11	Z11	X12	Y12	Z12	X13	Y13	Z13	X14	Y14	Z14	X15	Y15	Z15	X16	Y16	Z16	X17	Y17	Z17	X18	Y18	Z18	X19	Y19	Z19	X20	Y20	Z20	X21	Y21	Z21	X22	Y22	Z22	X23	Y23	Z23	X24	Y24	Z24	X25	Y25	Z25	X26	Y26	Z26	X27	Y27	Z27	X28	Y28	Z28	X29	Y29	Z29	X30	Y30	Z30	X31	Y31	Z31	X32	Y32	Z32	X33	Y33	Z33	X34	Y34	Z34	X35	Y35	Z35	X36	Y36	Z36	X37	Y37	Z37	X38	Y38	Z38	X39	Y39	Z39	X40	Y40	Z40	X41	Y41	Z41	X42	Y42	Z42	X43	Y43	Z43	X44	Y44	Z44	X45	Y45	Z45	

71	0.700	1348.53601	318.37241	1638.39026	1480.61206	327.07828	1634.33472	1360.53247	185.15952	1584.93982	1489.81348	195.14153	1585.88538	1420.76770	188.22066	1430.44165	1438.58093	147.51103	1101.74011	1421.64124	298.03922	1352.69434	1423.48462	336.27881	1178.30713	1509.64795	114.28065	1265.31738	1259.07825	238.81779	1377.72852	1194.16467	180.46075	1185.11206	1187.76514	137.48540	1080.86365	1163.18042	104.62720	935.28802	1195.38721	121.51047	803.64001	1166.88611	60.35518	824.69757	1163.25940	62.47491	733.62006	1582.24060	255.32426	1391.37000	1686.28857	216.50731	1203.87756	1709.07605	233.11182	1087.85645	1718.04736	301.26276	993.98914	1662.88904	417.27414	913.40155	1712.70007	382.22165	885.34607	1701.22900	454.91351	845.63135	1340.37476	339.25708	947.26855	1556.88696	317.53006	945.14966	1351.73706	176.85320	969.46198	1519.20239	167.39595	970.18658	1278.08752	348.19263	642.07172	1315.07056	405.67007	493.23425	1329.43506	414.78973	235.16824	1379.92029	433.24530	67.09314	1427.39258	393.82297	54.01003	1386.59814	576.77917	46.33106	1608.01355	224.30174	607.59503	1593.64746	211.30829	479.93756	1570.89514	9.33753	303.72742	1516.92590	-128.02257	183.10437	1470.81531	-163.69531	201.61252	1498.26892	-67.68036	41.82087	1412.52820	222.19456	1680.37073															 
72	0.710	1347.22400	332.70837	1639.91052	1479.30200	341.31689	1636.16699	1359.14087	199.56636	1586.65662	1488.49402	209.17874	1587.82227	1419.50476	202.90131	1431.65564	1437.99072	163.04221	1103.56445	1420.77368	313.08282	1354.80017	1422.93457	352.32077	1180.84595	1508.70593	129.28389	1267.01709	1258.23462	254.51529	1380.02344	1193.08240	197.79193	1187.04944	1186.74463	155.72066	1082.51721	1162.37939	124.62368	936.48090	1194.87048	144.12805	805.34045	1165.98474	81.78498	825.33051	1163.29712	84.88174	734.02930	1580.80139	269.44507	1393.89233	1684.54602	229.73134	1206.67493	1706.55066	246.01846	1090.09875	1716.67322	311.67398	993.91980	1662.83862	424.98523	908.71594	1712.53296	388.67438	882.21368	1701.70093	459.75223	839.61230	1339.23157	354.45691	949.99219	1555.53845	333.49094	947.17365	1352.20178	192.00867	972.02899	1519.26392	183.72630	971.47778	1276.93408	362.19766	644.16656	1314.22095	417.33804	493.89856	1329.36487	421.41074	235.59007	1380.29175	435.19733	67.21199	1427.05505	394.76385	54.57758	1388.33752	578.26007	44.69728	1609.42053	246.28098	607.27191	1596.34448	236.89845	479.37070	1573.07349	33.88784	309.20975	1518.68628	-107.86469	194.61586	1472.80396	-141.52277	216.17763	1499.83167	-60.12537	46.71743	1411.02148	236.53104	1682.17188															 
73	0.720	1345.85876	346.99203	1641.54346	1477.94885	355.44226	1638.16382	1357.90503	213.79152	1588.12915	1487.22559	223.46066	1589.69348	1418.28479	217.20164	1432.68420	1437.35242	178.50618	1105.35742	1419.89697	328.13809	1356.76440	1422.45544	368.18228	1183.15259	1507.56689	144.41589	1268.41418	1257.37915	270.17789	1382.25146	1192.13269	215.31902	1188.91064	1185.54688	174.16058	1084.09583	1161.34741	145.21098	937.41980	1195.29724	165.48128	806.40540	1164.85266	104.13988	825.67981	1163.23718	108.21738	734.20038	1579.43347	283.47714	1396.11743	1682.88477	243.05901	1209.32947	1704.09229	258.70078	1092.07288	1715.33044	321.55350	993.58258	1662.81335	432.32626	903.88208	1712.36035	394.58893	879.06677	1702.62793	464.49106	833.71051	1338.05420	369.29434	952.20892	1554.47107	349.01007	948.76208	1352.38269	206.93835	974.22583	1519.32312	199.42645	972.81305	1276.04175	374.86432	645.13538	1313.81445	427.73898	494.26187	1329.42834	427.78622	235.68233	1380.93787	436.10919	67.26514	1427.12646	395.55054	54.53051	1389.77710	578.78809	43.83954	1610.43616	267.98581	607.09534	1598.26294	262.79419	478.97009	1574.97754	60.00609	313.97794	1520.86292	-84.93430	204.75829	1475.09802	-116.00382	229.66901	1501.80444	-51.20819	51.03987	1409.44739	250.69093	1683.84814															 
74	0.730	1344.72754	360.99945	1643.12793	1476.57996	369.55389	1640.38721	1356.66345	228.10626	1589.53577	1485.99512	237.78481	1591.47949	1417.03943	231.73524	1434.01807	1436.57153	193.74565	1107.19421	1418.82703	343.42203	1358.65259	1421.97400	383.82770	1185.28516	1506.54553	158.73314	1270.06689	1256.46204	285.86548	1384.35645	1190.67395	232.61824	1190.68872	1184.29761	192.44316	1085.32788	1160.21497	166.05991	938.12708	1194.86340	188.43329	807.57196	1163.85889	127.18032	825.55328	1163.05249	132.70470	734.03290	1578.26660	297.47549	1398.20093	1681.51563	256.52567	1211.65747	1702.06274	271.05252	1093.78418	1714.19116	330.99838	992.96338	1663.10913	439.15872	898.94067	1712.18860	400.25385	875.68091	1703.31091	468.35028	827.54541	1336.92542	383.88492	953.90002	1553.60388	364.00150	950.22913	1352.42065	221.68738	976.23743	1519.43030	214.63737	974.15338	1276.41077	386.05814	645.50427	1313.68250	436.88290	494.06689	1331.15405	432.06851	235.45653	1381.66638	436.70490	67.49263	1427.92090	395.35486	55.04285	1390.32214	579.07898	43.31736	1611.03674	289.56580	607.18634	1599.41284	289.21011	479.01724	1577.02307	87.47429	317.94086	1523.14050	-60.16376	213.26654	1477.26660	-88.26559	241.22498	1503.72998	-40.26730	56.23738	1407.97424	264.54926	1685.54272															 
75	0.740	1343.46240	375.04092	1645.06116	1475.16882	383.68481	1642.72485	1355.53552	242.37068	1591.06616	1484.90112	252.00433	1593.39099	1415.76477	246.54735	1435.82751	1435.73792	208.79037	1109.12842	1418.02661	358.42056	1360.73584	1421.45239	399.24536	1187.43237	1505.19604	173.28250	1271.82471	1255.50330	301.46600	1386.27734	1189.29468	250.08681	1192.17981	1182.79065	211.11499	1086.33240	1159.17761	187.56337	938.37604	1194.29810	212.15292	808.61469	1162.86292	150.93642	825.11102	1163.33301	158.31395	733.50854	1577.36011	311.50647	1400.10144	1680.30029	270.07440	1213.44238	1700.42529	283.15836	1095.10022	1713.25891	340.10861	992.08203	1663.33301	445.60104	893.89081	1712.29810	405.39529	872.38477	1703.55835	471.38345	821.10577	1336.01868	398.13120	955.42255	1553.13745	378.59940	951.72058	1352.30481	235.69539	978.21606	1519.41736	229.34390	975.39026	1276.37964	396.26047	645.74127	1313.73206	444.95517	493.46191	1332.55396	434.75427	235.48032	1382.23608	437.02359	67.65263	1428.44275	395.41080	55.25909	1390.77124	579.20465	43.05543	1611.21582	311.11267	607.61554	1600.10913	316.03589	479.77985	1578.92676	116.44907	320.42938	1525.03040	-34.20060	220.61386	1478.81152	-59.62881	250.40675	1505.34253	-25.12988	61.44594	1406.56592	278.46417	1687.34888															 
76	0.750	1342.22302	389.03348	1647.05273	1473.81836	397.83521	1645.14551	1354.49561	256.63388	1592.71887	1483.82642	266.48489	1595.35010	1414.52600	261.57318	1438.06812	1434.97375	223.50826	1111.15161	1417.37280	373.37775	1362.91113	1421.02820	414.35818	1189.53101	1503.66650	187.63263	1273.83252	1254.42102	317.06854	1388.09583	1187.99329	267.62158	1193.43896	1181.04590	229.84929	1087.10303	1157.66467	208.92027	938.66919	1193.02576	237.38705	809.86249	1161.75391	174.95316	824.54175	1162.91187	184.68304	733.01440	1576.67542	325.63144	1401.84729	1679.30920	283.46271	1214.81921	1699.21667	295.10977	1096.12170	1712.55151	348.71411	990.99176	1663.62048	451.62833	888.76117	1712.53027	410.18756	869.03961	1703.52917	473.63632	814.60590	1335.47278	412.01099	956.95264	1552.73669	392.60675	953.22394	1351.85291	250.15878	979.88483	1519.33447	243.42780	976.68457	1277.28857	405.88937	646.09161	1313.92346	452.43359	492.90048	1332.58716	437.12796	235.83380	1382.63818	437.32526	67.93837	1428.75073	395.23907	55.33671	1391.44836	579.41058	42.85756	1610.99719	332.96661	608.51965	1600.20691	342.95059	481.27945	1581.06384	146.53136	321.54175	1526.39844	-7.92194	227.00121	1479.54285	-33.10978	256.98987	1509.67493	-3.03227	67.79659	1405.24377	292.48251	1689.29053															 
